<?xml version="1.0" encoding="UTF-8"?><svg id="Layer_1" xmlns="http://www.w3.org/2000/svg" width="1920" height="1080" viewBox="0 0 1920 1080"><defs><style>.cls-1{fill:#fff;stroke:#231f20;stroke-linecap:round;stroke-miterlimit:10;stroke-width:.25px;}</style></defs><path class="cls-1" d="M605.34,321.79c26.57,1.51,52.21,8.31,78.45,12.19,22.33,3.3,45.28,3.03,67.1-3.18,20.95-5.97,42.43-17.65,56.95-34.15,10.01-11.37,16.99-24.88,25.23-37.5-24.64-43.12-74.86-72.65-132.81-72.65-82.29,0-149,59.55-149,133,0,1.11,.02,2.22,.05,3.33,18.01-1.05,36.01-2.06,54.04-1.04Z"/><path class="cls-1" d="M807.11,311.33c-17.01,14.46-36.95,25.16-58.69,30.46-22.76,5.55-46.16,5.1-69.18,1.54-27.34-4.23-53.96-11.13-81.76-11.86-15.19-.4-30.34,.43-45.5,1.32,7.47,67.21,71,119.71,148.26,119.71,82.29,0,149-59.55,149-133,0-17.79-3.92-34.76-11.02-50.27-9.37,14.83-17.54,30.56-31.11,42.11Z"/><path class="cls-1" d="M683.78,333.98c22.33,3.3,45.28,3.03,67.1-3.18,12.05-3.43,24.27-8.77,35.24-15.81-2.39-39.28-39.7-70.49-85.37-70.49s-85.5,33.35-85.5,74.5c0,1.21,.04,2.4,.1,3.6,23.04,2.37,45.51,7.99,68.43,11.38Z"/><path class="cls-1" d="M748.42,341.79c-22.76,5.55-46.16,5.1-69.18,1.54-20.96-3.24-41.51-8.05-62.49-10.45,7.47,34.51,42.22,60.61,83.99,60.61,44.32,0,80.75-29.38,85.07-67-11.63,6.85-24.18,12.07-37.4,15.29Z"/><path d="M695.21,376.18c-5.94-3.38-7.79-10.74-7.45-17.14,.45-8.63,4.53-16.61,5.56-25.16,.48-3.99-.45-7.54-3.66-10.12-1.48-1.2-3.07-2.23-4.47-3.54s-2.72-2.87-3.79-4.54c-.9-1.4-2.67-3.84-2.19-5.58s2.75-2.67,4.16-3.36c3.64-1.78,7.64-2.64,11.52-3.74,7.08-2.01,14.66-5.57,17.19-13.1,1.08-3.21,.64-6.84-1.26-9.65s-4.89-4.68-8.03-5.92-7.52-2.53-10.89-1.37c-3.01,1.04-5.11,3.72-5.95,6.73-2.02,7.29,3.88,13.7,9.79,16.99,11.39,6.34,26.57,4.45,36.31-4.11,1.22-1.07,2.33-2.25,3.34-3.52,.64-.8,.56-2.27-.66-2.51-17.18-3.36-34.79-4.35-52.23-2.83-4.94,.43-9.86,1.06-14.75,1.87-1.2,.2-1.33,1.75-.66,2.51,10.44,11.8,24.94,19.91,40.43,22.78,4.43,.82,8.93,1.22,13.44,1.19l-1.3-.74c1.4,2.18-.65,4.57-2.17,6.03-1.85,1.78-3.67,3.42-4.62,5.87-1.81,4.66-.13,10.02,2.6,13.95,3.06,4.39,7.31,7.74,10.5,12.02,3.03,4.06,5.45,8.87,5.82,13.99s-1.37,10.77-5.52,14.27c-1.48,1.25,.65,3.36,2.12,2.12,7.05-5.96,7.81-16.29,4.46-24.39-1.83-4.42-4.64-8.32-7.89-11.81-3.25-3.48-7.2-6.84-8.93-11.41-.77-2.05-1.18-4.35-.71-6.52,.51-2.31,2.01-3.83,3.69-5.4s3.25-3.22,3.86-5.49c.45-1.69,.39-5.2-1.92-5.48-1.03-.12-2.14,0-3.18-.04-1.19-.04-2.38-.12-3.57-.23-2.31-.21-4.6-.55-6.87-1-4.48-.9-8.88-2.23-13.1-3.97-9.57-3.96-18.18-10.09-25.04-17.84l-.66,2.51c16.84-2.79,34.06-3.21,51.01-1.28,4.82,.55,9.61,1.3,14.37,2.23l-.66-2.51c-7.61,9.55-21.38,12.96-32.74,8.69-5.47-2.06-12.61-7.11-11.96-13.77,.26-2.66,1.96-5.56,4.73-6.18,1.83-.41,3.84,.1,5.61,.56,1.55,.4,3.07,.92,4.5,1.63,2.7,1.36,5.18,3.42,5.99,6.46,.86,3.25-.59,6.52-2.73,8.93-5.1,5.76-12.82,6.65-19.76,8.89-3.23,1.04-7.24,2.4-9.48,5.11-2.65,3.21-.48,7.14,1.47,10.12s4.58,5.56,7.54,7.72c1.37,1,2.85,2.08,3.51,3.71,.72,1.78,.54,3.86,.25,5.71-1.27,8.07-4.79,15.65-5.43,23.84-.47,6.16,.94,13.01,5.29,17.62,1.05,1.11,2.28,2.05,3.6,2.8,1.68,.95,3.19-1.64,1.51-2.59h0Z"/><path d="M620.11,402.45l11.38-14.83,6.83,5.05c.99,.73,1.52,1.74,1.6,3.02,.1,1.3-.28,2.5-1.12,3.6-.88,1.15-1.98,1.88-3.31,2.18-1.31,.31-2.45,.11-3.44-.62l-5.81-4.3-5.1,6.65-1.02-.75Zm12.49-2.69c.75,.55,1.62,.72,2.6,.51,.97-.19,1.79-.72,2.44-1.57,.68-.88,1-1.84,.96-2.86-.05-1.01-.45-1.79-1.2-2.34l-5.63-4.16-4.8,6.25,5.63,4.16Z"/><path d="M636.88,412.38c-.36-2.27,.24-4.61,1.78-7.03,1.6-2.51,3.54-4.12,5.8-4.82,2.26-.7,4.47-.39,6.63,.94,2.16,1.33,3.41,3.15,3.75,5.45,.34,2.3-.3,4.71-1.9,7.22-1.55,2.42-3.44,3.97-5.68,4.64-2.24,.67-4.43,.34-6.6-1-2.16-1.33-3.42-3.13-3.78-5.4Zm10.05,5.2c1.91-.6,3.55-1.96,4.92-4.1,1.4-2.19,1.98-4.29,1.73-6.29-.25-2-1.3-3.57-3.13-4.7s-3.73-1.37-5.68-.72c-1.95,.65-3.62,2.07-5.02,4.26-1.37,2.14-1.91,4.18-1.62,6.13,.27,1.97,1.33,3.52,3.17,4.65s3.72,1.39,5.64,.78Z"/><path d="M655.81,426.46l6.07-17.58,8.55,2.85c1.23,.41,2.12,1.21,2.67,2.41,.56,1.18,.62,2.41,.17,3.69-.39,1.13-.99,2.02-1.8,2.67-.83,.65-1.67,.91-2.53,.78,.68,.45,1.07,1.27,1.17,2.47,.1,1.2-.1,2.54-.62,4.03-.29,.83-.48,1.46-.59,1.89-.13,.51-.17,.88-.12,1.12l-1.21-.4c-.12-.3-.1-.78,.06-1.44l.78-2.55c.41-1.19,.47-2.3,.18-3.35-.28-1.02-.83-1.67-1.66-1.94l-7.13-2.38-2.81,8.13-1.21-.4Zm11.52-6.44c.95,.31,1.89,.23,2.82-.25,.9-.47,1.53-1.21,1.88-2.22,.34-.99,.3-1.95-.12-2.88-.45-.92-1.14-1.54-2.09-1.85l-7.13-2.37-2.49,7.21,7.13,2.38Z"/><path d="M683.93,433.35l1.89-16.99-6.44-.69,.13-1.2,14.21,1.52-.13,1.2-6.5-.7-1.89,16.99-1.27-.14Z"/><path d="M699.96,433.83l.2-18.57,11.71,.13v1.22s-10.45-.11-10.45-.11l-.08,7.14,9.22,.1v1.16s-9.23-.1-9.23-.1l-.1,9.05h-1.28Z"/><path d="M720.02,429.59c-1.8-1.46-2.95-3.6-3.43-6.42-.5-2.92-.15-5.39,1.06-7.38,1.21-2,3.07-3.21,5.59-3.62,2.52-.42,4.68,.13,6.49,1.63,1.81,1.5,2.97,3.71,3.47,6.64,.48,2.82,.12,5.21-1.1,7.17-1.22,1.96-3.08,3.15-5.6,3.56s-4.68-.11-6.48-1.57Zm11.03-2.68c1.02-1.69,1.32-3.79,.9-6.28-.44-2.55-1.43-4.5-2.98-5.83-1.54-1.33-3.39-1.82-5.53-1.47-2.14,.35-3.72,1.41-4.73,3.16-1.01,1.76-1.3,3.91-.86,6.46,.43,2.49,1.41,4.37,2.94,5.64,1.54,1.29,3.38,1.76,5.52,1.41,2.14-.35,3.72-1.39,4.74-3.1Z"/><path d="M736.32,408.25l1.24-.29,4.08,16.91,9.9-2.3,.28,1.16-11.15,2.59-4.36-18.07Z"/><path d="M758.44,422.21l-6.15-18.53,1.21-.39,6.15,18.53-1.21,.39Z"/><path d="M767.34,412.85c-2-1.18-3.46-3.13-4.36-5.85-.94-2.82-.96-5.31-.06-7.46,.9-2.15,2.56-3.62,4.98-4.39,2.43-.77,4.65-.55,6.67,.67,2.02,1.22,3.49,3.24,4.43,6.06,.9,2.72,.9,5.14,0,7.25-.91,2.11-2.58,3.56-5,4.33-2.43,.78-4.64,.57-6.65-.61Zm10.5-4.24c.76-1.82,.74-3.94-.06-6.34-.82-2.46-2.09-4.24-3.82-5.33-1.73-1.1-3.62-1.31-5.69-.65-2.06,.66-3.46,1.93-4.2,3.81-.74,1.88-.7,4.06,.12,6.52,.8,2.4,2.05,4.12,3.76,5.16,1.71,1.06,3.6,1.25,5.67,.59,2.06-.66,3.47-1.91,4.22-3.75Z"/><path d="M594.86,288.43c-1.28,.27-2.58,0-3.92-.82l-.59-.37,.68-1.06,.59,.37c1.06,.65,2.09,.89,3.08,.72,1.01-.17,1.82-.72,2.42-1.65,.62-.97,.8-1.96,.54-2.96-.26-.97-.92-1.79-1.98-2.44l-11.92-7.34,.68-1.06,11.92,7.34c1.33,.82,2.15,1.87,2.44,3.13,.31,1.28,.05,2.57-.78,3.88-.8,1.26-1.85,2.01-3.15,2.27Z"/><path d="M599.92,273.57c-2.33-.13-4.55-1.19-6.64-3.19-2.17-2.07-3.36-4.26-3.59-6.57-.23-2.31,.54-4.37,2.32-6.17s3.85-2.61,6.21-2.46c2.36,.16,4.63,1.27,6.8,3.34,2.09,1.99,3.24,4.13,3.43,6.42,.2,2.29-.59,4.33-2.37,6.12s-3.84,2.63-6.17,2.5Zm7.28-8.56c-.19-1.96-1.21-3.82-3.06-5.58-1.89-1.8-3.86-2.8-5.91-2.98-2.05-.18-3.83,.5-5.34,2.02-1.51,1.53-2.15,3.29-1.91,5.3,.24,2,1.31,3.91,3.2,5.71,1.85,1.76,3.77,2.71,5.77,2.84,2.02,.15,3.78-.54,5.29-2.07,1.51-1.53,2.16-3.28,1.95-5.25Z"/><path d="M615.39,258.06c-1.78-.03-3.25-.69-4.41-1.96l.95-.84c.94,1.02,2.13,1.56,3.57,1.61,1.44,.05,2.71-.41,3.8-1.38,1.19-1.05,1.92-2.26,2.21-3.63,.27-1.36,0-2.48-.81-3.37-.7-.76-1.65-1.07-2.86-.93-1.2,.13-2.46,.68-3.79,1.66-1.62,1.2-3.2,1.84-4.76,1.92-1.56,.08-2.81-.4-3.76-1.44-.94-1.02-1.28-2.31-1.04-3.85,.25-1.54,1.02-2.88,2.32-4.03,1.39-1.23,2.93-1.9,4.63-2.02,1.68-.1,3.01,.38,3.99,1.45l-.95,.84c-.75-.82-1.8-1.17-3.15-1.05-1.33,.11-2.57,.66-3.7,1.67-1.03,.91-1.66,1.97-1.89,3.18-.23,1.19,.02,2.17,.74,2.97,.71,.78,1.69,1.09,2.93,.95,1.26-.16,2.57-.74,3.93-1.75,1.57-1.16,3.12-1.78,4.64-1.86,1.51-.07,2.73,.41,3.67,1.43,1.02,1.12,1.39,2.53,1.08,4.23s-1.18,3.19-2.64,4.47c-1.36,1.2-2.93,1.77-4.7,1.71Z"/><path d="M627.86,248.01l-10.51-15.45,10.27-6.73,.69,1.02-9.21,6.03,4.04,5.94,8.41-5.51,.66,.96-8.41,5.51,4.45,6.54,9.21-6.03,.67,.99-10.27,6.73Z"/><path d="M642.43,238.74l-8.32-17.7,7.77-3.51c1.12-.51,2.29-.47,3.5,.12,1.23,.58,2.16,1.52,2.77,2.83,.65,1.37,.8,2.73,.47,4.06-.31,1.32-1.03,2.24-2.15,2.75l-6.61,2.99,3.73,7.94-1.16,.52Zm3.3-12.49c.85-.38,1.41-1.07,1.67-2.06,.27-.97,.17-1.96-.31-2.97-.5-1.05-1.22-1.83-2.17-2.31-.94-.46-1.84-.51-2.69-.12l-6.4,2.9,3.51,7.46,6.4-2.9Z"/><path d="M658.63,232.29l-4.77-17.97,1.24-.32,2.08,7.85,11.05-2.82-2.08-7.85,1.24-.32,4.77,17.97-1.24,.32-2.38-8.97-11.05,2.82,2.38,8.97-1.24,.32Z"/><path d="M677.23,226.27l-2.49-18.41,1.27-.16,2.49,18.41-1.27,.16Z"/><path d="M683.48,225.46l.77-18.55,1.75,.07,10.71,17.48,.7-17.02,1.28,.05-.77,18.55-1.75-.07-10.72-17.23-.69,16.77-1.28-.05Z"/><path d="M702.05,226.37l3.62-18.23,12.12,2.32-.24,1.2-10.87-2.08-1.39,7.01,9.93,1.9-.23,1.14-9.93-1.9-1.53,7.71,10.87,2.08-.23,1.17-12.12-2.32Z"/><path d="M731.05,228.92c-.76-2.17-.59-4.58,.5-7.23,1.13-2.75,2.75-4.66,4.85-5.74,2.1-1.08,4.33-1.15,6.7-.21,2.37,.94,3.92,2.51,4.66,4.72,.74,2.21,.55,4.69-.59,7.43-1.09,2.65-2.68,4.5-4.76,5.54-2.08,1.04-4.31,1.09-6.67,.15-2.37-.94-3.93-2.49-4.69-4.67Zm10.82,3.39c1.78-.92,3.15-2.54,4.11-4.89,.99-2.4,1.18-4.56,.58-6.49-.61-1.93-1.92-3.29-3.93-4.09-2.01-.8-3.92-.71-5.72,.26-1.8,.97-3.2,2.66-4.18,5.06-.96,2.34-1.13,4.45-.5,6.32,.62,1.89,1.94,3.24,3.95,4.03,2.01,.8,3.91,.73,5.7-.2Z"/><path d="M756.86,220.81l1.11,.61-8.67,15.15,8.88,4.89-.59,1.04-9.99-5.51,9.26-16.19Z"/><path d="M782.64,265.57l15.73-10.31,6.86,10.08-1.03,.68-6.15-9.04-6.05,3.96,5.62,8.26-.98,.64-5.62-8.26-6.66,4.36,6.15,9.04-1.01,.66-6.86-10.08Z"/><path d="M773.37,253.4c.2-1.74,1.01-3.12,2.42-4.15l.76,1c-1.13,.83-1.79,1.95-1.98,3.36-.19,1.41,.16,2.7,1.04,3.85,.95,1.25,2.12,2.08,3.49,2.48,1.36,.38,2.53,.22,3.51-.5,.84-.62,1.25-1.53,1.22-2.73-.02-1.19-.46-2.47-1.33-3.87-1.07-1.69-1.57-3.3-1.51-4.83,.06-1.53,.67-2.72,1.83-3.56,1.13-.83,2.47-1.06,4.02-.68,1.54,.38,2.84,1.26,3.88,2.63,1.12,1.47,1.66,3.04,1.62,4.72-.05,1.65-.67,2.91-1.86,3.78l-.76-1c.91-.67,1.37-1.67,1.37-3,.02-1.31-.43-2.57-1.35-3.78-.83-1.09-1.85-1.8-3.07-2.13-1.19-.33-2.22-.17-3.09,.47-.86,.63-1.28,1.56-1.25,2.79,.04,1.25,.51,2.58,1.4,4.01,1.03,1.64,1.52,3.21,1.46,4.72-.07,1.49-.68,2.65-1.81,3.48-1.24,.91-2.71,1.13-4.41,.69-1.7-.45-3.14-1.44-4.31-2.98-1.09-1.44-1.52-3.03-1.29-4.76Z"/><path d="M760.22,244.15l11.93-14.41,9.58,7.65-.79,.95-8.59-6.85-4.59,5.54,7.85,6.26-.74,.9-7.85-6.26-5.05,6.1,8.59,6.85-.76,.92-9.58-7.65Z"/><path d="M791.29,278.89l17.18-7.77,.74,1.56-10.98,17.31,15.76-7.13,.54,1.14-17.18,7.77-.74-1.56,10.75-17.21-15.53,7.02-.53-1.14Z"/></svg>