<?xml version="1.0" encoding="UTF-8"?><svg id="Layer_1" xmlns="http://www.w3.org/2000/svg" width="1920" height="1080" viewBox="0 0 1920 1080"><defs><style>.cls-1{fill:#fff;stroke:#231f20;stroke-linecap:round;stroke-miterlimit:10;stroke-width:.16px;}</style></defs><path class="cls-1" d="M136.3,156.33c17.83,.88,35.04,4.84,52.65,7.1,14.99,1.92,30.39,1.77,45.04-1.85,14.06-3.48,28.48-10.28,38.22-19.9,6.72-6.63,11.4-14.5,16.93-21.85-16.54-25.13-50.24-42.33-89.14-42.33-55.23,0-100.01,34.7-100.01,77.5,0,.65,.01,1.29,.03,1.94,12.09-.61,24.17-1.2,36.27-.61h0Z"/><path class="cls-1" d="M271.72,150.24c-11.42,8.43-24.8,14.66-39.39,17.75-15.28,3.23-30.98,2.97-46.43,.9-18.35-2.46-36.22-6.49-54.88-6.91-10.2-.23-20.36,.25-30.54,.77,5.01,39.16,47.65,69.76,99.51,69.76,55.23,0,100.01-34.7,100.01-77.5,0-10.37-2.63-20.25-7.4-29.29-6.29,8.64-11.77,17.81-20.88,24.54h0Z"/><path class="cls-1" d="M188.95,163.44c14.99,1.92,30.39,1.77,45.04-1.85,8.09-2,16.29-5.11,23.65-9.21-1.6-22.89-26.65-41.07-57.3-41.07s-57.39,19.43-57.39,43.41c0,.71,.03,1.4,.07,2.1,15.46,1.38,30.55,4.66,45.93,6.63h0Z"/><path class="cls-1" d="M232.33,167.99c-15.28,3.23-30.98,2.97-46.43,.9-14.07-1.89-27.86-4.69-41.94-6.09,5.01,20.11,28.34,35.32,56.37,35.32,29.75,0,54.2-17.12,57.1-39.04-7.81,3.99-16.23,7.03-25.1,8.91h0Z"/><path d="M196.62,188.03c-3.99-1.97-5.23-6.26-5-9.99,.3-5.03,3.04-9.68,3.73-14.66,.32-2.32-.3-4.39-2.46-5.9-.99-.7-2.06-1.3-3-2.06s-1.83-1.67-2.54-2.65c-.6-.82-1.79-2.24-1.47-3.25s1.85-1.56,2.79-1.96c2.44-1.04,5.13-1.54,7.73-2.18,4.75-1.17,9.84-3.25,11.54-7.63,.72-1.87,.43-3.99-.85-5.62s-3.28-2.73-5.39-3.45-5.05-1.47-7.31-.8c-2.02,.61-3.43,2.17-3.99,3.92-1.36,4.25,2.6,7.98,6.57,9.9,7.64,3.69,17.83,2.59,24.37-2.39,.82-.62,1.56-1.31,2.24-2.05,.43-.47,.38-1.32-.44-1.46-11.53-1.96-23.35-2.53-35.06-1.65-3.32,.25-6.62,.62-9.9,1.09-.81,.12-.89,1.02-.44,1.46,7.01,6.88,16.74,11.6,27.14,13.27,2.97,.48,5.99,.71,9.02,.69l-.87-.43c.94,1.27-.44,2.66-1.46,3.51-1.24,1.04-2.46,1.99-3.1,3.42-1.21,2.72-.09,5.84,1.75,8.13,2.05,2.56,4.91,4.51,7.05,7,2.03,2.37,3.66,5.17,3.91,8.15s-.92,6.28-3.7,8.32c-.99,.73,.44,1.96,1.42,1.24,4.73-3.47,5.24-9.49,2.99-14.21-1.23-2.58-3.11-4.85-5.3-6.88-2.18-2.03-4.83-3.99-5.99-6.65-.52-1.19-.79-2.53-.48-3.8,.34-1.35,1.35-2.23,2.48-3.15s2.18-1.88,2.59-3.2c.3-.98,.26-3.03-1.29-3.19-.69-.07-1.44,0-2.13-.02-.8-.02-1.6-.07-2.4-.13-1.55-.12-3.09-.32-4.61-.58-3.01-.52-5.96-1.3-8.79-2.31-6.42-2.31-12.2-5.88-16.81-10.4l-.44,1.46c11.3-1.63,22.86-1.87,34.24-.75,3.24,.32,6.45,.76,9.64,1.3l-.44-1.46c-5.11,5.56-14.35,7.55-21.97,5.06-3.67-1.2-8.46-4.14-8.03-8.02,.17-1.55,1.32-3.24,3.17-3.6,1.23-.24,2.58,.06,3.77,.33,1.04,.23,2.06,.54,3.02,.95,1.81,.79,3.48,1.99,4.02,3.76,.58,1.89-.4,3.8-1.83,5.2-3.42,3.36-8.6,3.87-13.26,5.18-2.17,.61-4.86,1.4-6.36,2.98-1.78,1.87-.32,4.16,.99,5.9s3.07,3.24,5.06,4.5c.92,.58,1.91,1.21,2.36,2.16,.48,1.04,.36,2.25,.17,3.33-.85,4.7-3.21,9.12-3.64,13.89-.32,3.59,.63,7.58,3.55,10.27,.7,.65,1.53,1.19,2.42,1.63,1.13,.55,2.14-.96,1.01-1.51h.04Z"/><path d="M146.21,203.34l7.64-8.64,4.58,2.94c.66,.43,1.02,1.01,1.07,1.76,.07,.76-.19,1.46-.75,2.1-.59,.67-1.33,1.1-2.22,1.27-.88,.18-1.64,.06-2.31-.36l-3.9-2.51-3.42,3.87-.68-.44h0Zm8.38-1.57c.5,.32,1.09,.42,1.75,.3,.65-.11,1.2-.42,1.64-.91,.46-.51,.67-1.07,.64-1.67-.03-.59-.3-1.04-.81-1.36l-3.78-2.42-3.22,3.64,3.78,2.42h0Z"/><path d="M157.47,209.12c-.24-1.32,.16-2.69,1.19-4.1,1.07-1.46,2.38-2.4,3.89-2.81s3-.23,4.45,.55c1.45,.77,2.29,1.84,2.52,3.18,.23,1.34-.2,2.74-1.28,4.21-1.04,1.41-2.31,2.31-3.81,2.7s-2.97,.2-4.43-.58c-1.45-.77-2.3-1.82-2.54-3.15h0Zm6.75,3.03c1.28-.35,2.38-1.14,3.3-2.39,.94-1.28,1.33-2.5,1.16-3.67s-.87-2.08-2.1-2.74-2.5-.8-3.81-.42-2.43,1.21-3.37,2.48c-.92,1.25-1.28,2.44-1.09,3.57,.18,1.15,.89,2.05,2.13,2.71s2.5,.81,3.79,.45h0Z"/><path d="M170.17,217.33l4.07-10.24,5.74,1.66c.83,.24,1.42,.71,1.79,1.4,.38,.69,.42,1.4,.11,2.15-.26,.66-.66,1.18-1.21,1.56-.56,.38-1.12,.53-1.7,.45,.46,.26,.72,.74,.79,1.44s-.07,1.48-.42,2.35c-.19,.48-.32,.85-.4,1.1-.09,.3-.11,.51-.08,.65l-.81-.23c-.08-.17-.07-.45,.04-.84l.52-1.49c.28-.69,.32-1.34,.12-1.95-.19-.59-.56-.97-1.11-1.13l-4.79-1.39-1.89,4.74-.81-.23h.02Zm7.73-3.75c.64,.18,1.27,.13,1.89-.15,.6-.27,1.03-.71,1.26-1.29,.23-.58,.2-1.14-.08-1.68-.3-.54-.77-.9-1.4-1.08l-4.79-1.38-1.67,4.2,4.79,1.39h0Z"/><path d="M189.05,221.34l1.27-9.9-4.32-.4,.09-.7,9.54,.89-.09,.7-4.36-.41-1.27,9.9-.85-.08h0Z"/><path d="M199.81,221.62l.13-10.82,7.86,.08v.71l-7.01-.06-.05,4.16,6.19,.06v.68l-6.2-.06-.07,5.27h-.85Z"/><path d="M213.27,219.15c-1.21-.85-1.98-2.1-2.3-3.74-.34-1.7-.1-3.14,.71-4.3,.81-1.17,2.06-1.87,3.75-2.11,1.69-.24,3.14,.08,4.36,.95s1.99,2.16,2.33,3.87c.32,1.64,.08,3.04-.74,4.18-.82,1.14-2.07,1.84-3.76,2.07s-3.14-.06-4.35-.91h0Zm7.4-1.57c.68-.98,.89-2.21,.6-3.66-.3-1.49-.96-2.62-2-3.4-1.03-.77-2.28-1.06-3.71-.86s-2.5,.82-3.17,1.84c-.68,1.03-.87,2.28-.58,3.76,.29,1.45,.95,2.55,1.97,3.29,1.03,.75,2.27,1.03,3.7,.82s2.5-.81,3.18-1.81h0Z"/><path d="M224.21,206.72l.83-.17,2.74,9.85,6.64-1.34,.19,.68-7.48,1.51-2.93-10.53h0Z"/><path d="M239.06,214.85l-4.13-10.8,.81-.23,4.13,10.8-.81,.23Z"/><path d="M245.03,209.4c-1.34-.69-2.32-1.82-2.93-3.41-.63-1.64-.64-3.09-.04-4.35s1.72-2.11,3.34-2.56c1.63-.45,3.12-.32,4.48,.39,1.36,.71,2.34,1.89,2.97,3.53,.6,1.58,.6,3,0,4.22-.61,1.23-1.73,2.07-3.36,2.52-1.63,.45-3.11,.33-4.46-.36h0Zm7.05-2.47c.51-1.06,.5-2.3-.04-3.69-.55-1.43-1.4-2.47-2.56-3.11-1.16-.64-2.43-.76-3.82-.38-1.38,.38-2.32,1.12-2.82,2.22s-.47,2.37,.08,3.8c.54,1.4,1.38,2.4,2.52,3.01,1.15,.62,2.42,.73,3.81,.34,1.38-.38,2.33-1.11,2.83-2.19h0Z"/><path d="M129.26,136.9c-.86,.16-1.73,0-2.63-.48l-.4-.22,.46-.62,.4,.22c.71,.38,1.4,.52,2.07,.42,.68-.1,1.22-.42,1.62-.96,.42-.57,.54-1.14,.36-1.72-.17-.57-.62-1.04-1.33-1.42l-8-4.28,.46-.62,8,4.28c.89,.48,1.44,1.09,1.64,1.82,.21,.75,.03,1.5-.52,2.26-.54,.73-1.24,1.17-2.11,1.32h0Z"/><path d="M132.66,128.24c-1.56-.08-3.05-.69-4.46-1.86-1.46-1.21-2.26-2.48-2.41-3.83-.15-1.35,.36-2.55,1.56-3.6s2.58-1.52,4.17-1.43c1.58,.09,3.11,.74,4.56,1.95,1.4,1.16,2.17,2.41,2.3,3.74,.13,1.33-.4,2.52-1.59,3.57s-2.58,1.53-4.14,1.46h0Zm4.89-4.98c-.13-1.14-.81-2.23-2.05-3.25-1.27-1.05-2.59-1.63-3.97-1.74-1.38-.1-2.57,.29-3.58,1.18-1.01,.89-1.44,1.92-1.28,3.09,.16,1.17,.88,2.28,2.15,3.33,1.24,1.03,2.53,1.58,3.87,1.65,1.36,.09,2.54-.31,3.55-1.21,1.01-.89,1.45-1.91,1.31-3.06h0Z"/><path d="M143.04,119.2c-1.19-.02-2.18-.4-2.96-1.14l.64-.49c.63,.59,1.43,.91,2.4,.94s1.82-.24,2.55-.8c.8-.61,1.29-1.32,1.48-2.12,.18-.79,0-1.45-.54-1.96-.47-.44-1.11-.62-1.92-.54-.81,.08-1.65,.4-2.54,.97-1.09,.7-2.15,1.07-3.19,1.12s-1.89-.23-2.52-.84c-.63-.59-.86-1.35-.7-2.24,.17-.9,.68-1.68,1.56-2.35,.93-.72,1.97-1.11,3.11-1.18,1.13-.06,2.02,.22,2.68,.84l-.64,.49c-.5-.48-1.21-.68-2.11-.61-.89,.06-1.72,.38-2.48,.97-.69,.53-1.11,1.15-1.27,1.85-.15,.69,.01,1.26,.5,1.73,.48,.45,1.13,.64,1.97,.55,.85-.09,1.72-.43,2.64-1.02,1.05-.68,2.09-1.04,3.11-1.08,1.01-.04,1.83,.24,2.46,.83,.68,.65,.93,1.47,.72,2.46s-.79,1.86-1.77,2.6c-.91,.7-1.97,1.03-3.15,1h0Z"/><path d="M151.41,113.34l-7.05-9,6.89-3.92,.46,.59-6.18,3.51,2.71,3.46,5.64-3.21,.44,.56-5.64,3.21,2.99,3.81,6.18-3.51,.45,.58-6.89,3.92h0Z"/><path d="M161.19,107.94l-5.58-10.31,5.22-2.05c.75-.3,1.54-.27,2.35,.07,.83,.34,1.45,.89,1.86,1.65,.44,.8,.54,1.59,.32,2.37-.21,.77-.69,1.31-1.44,1.6l-4.44,1.74,2.5,4.63-.78,.3h0Zm2.21-7.28c.57-.22,.95-.62,1.12-1.2,.18-.57,.11-1.14-.21-1.73-.34-.61-.82-1.07-1.46-1.35-.63-.27-1.24-.3-1.81-.07l-4.3,1.69,2.36,4.35,4.3-1.69h0Z"/><path d="M172.07,104.18l-3.2-10.47,.83-.19,1.4,4.57,7.42-1.64-1.4-4.57,.83-.19,3.2,10.47-.83,.19-1.6-5.23-7.42,1.64,1.6,5.23-.83,.19Z"/><path d="M184.55,100.67l-1.67-10.73,.85-.09,1.67,10.73-.85,.09Z"/><path d="M188.74,100.2l.52-10.81,1.17,.04,7.19,10.19,.47-9.92,.86,.03-.52,10.81-1.17-.04-7.2-10.04-.46,9.77-.86-.03h0Z"/><path d="M201.21,100.73l2.43-10.62,8.13,1.35-.16,.7-7.3-1.21-.93,4.08,6.66,1.11-.15,.66-6.66-1.11-1.03,4.49,7.3,1.21-.15,.68-8.13-1.35Z"/><path d="M220.67,102.22c-.51-1.26-.4-2.67,.34-4.21,.76-1.6,1.85-2.72,3.26-3.34s2.91-.67,4.5-.12c1.59,.55,2.63,1.46,3.13,2.75s.37,2.73-.4,4.33c-.73,1.54-1.8,2.62-3.19,3.23s-2.89,.64-4.48,.09c-1.59-.55-2.64-1.45-3.15-2.72h0Zm7.26,1.98c1.19-.54,2.11-1.48,2.76-2.85,.66-1.4,.79-2.66,.39-3.78-.41-1.12-1.29-1.92-2.64-2.38s-2.63-.41-3.84,.15-2.15,1.55-2.81,2.95c-.64,1.36-.76,2.59-.34,3.68,.42,1.1,1.3,1.89,2.65,2.35,1.35,.47,2.62,.43,3.83-.12h0Z"/><path d="M238,97.49l.75,.36-5.82,8.83,5.96,2.85-.4,.61-6.71-3.21,6.22-9.43h0Z"/><path d="M255.3,123.57l10.56-6.01,4.6,5.87-.69,.4-4.13-5.27-4.06,2.31,3.77,4.81-.66,.37-3.77-4.81-4.47,2.54,4.13,5.27-.68,.38-4.6-5.87h0Z"/><path d="M249.08,116.48c.13-1.01,.68-1.82,1.62-2.42l.51,.58c-.76,.48-1.2,1.14-1.33,1.96s.11,1.57,.7,2.24c.64,.73,1.42,1.21,2.34,1.45,.91,.22,1.7,.13,2.36-.29,.56-.36,.84-.89,.82-1.59-.01-.69-.31-1.44-.89-2.26-.72-.98-1.05-1.92-1.01-2.81s.45-1.58,1.23-2.07c.76-.48,1.66-.62,2.7-.4,1.03,.22,1.91,.73,2.6,1.53,.75,.86,1.11,1.77,1.09,2.75-.03,.96-.45,1.7-1.25,2.2l-.51-.58c.61-.39,.92-.97,.92-1.75,.01-.76-.29-1.5-.91-2.2-.56-.64-1.24-1.05-2.06-1.24-.8-.19-1.49-.1-2.07,.27-.58,.37-.86,.91-.84,1.63,.03,.73,.34,1.5,.94,2.34,.69,.96,1.02,1.87,.98,2.75-.05,.87-.46,1.54-1.21,2.03-.83,.53-1.82,.66-2.96,.4-1.14-.26-2.11-.84-2.89-1.74-.73-.84-1.02-1.77-.87-2.77h0Z"/><path d="M240.25,111.09l8.01-8.4,6.43,4.46-.53,.55-5.77-3.99-3.08,3.23,5.27,3.65-.5,.52-5.27-3.65-3.39,3.55,5.77,3.99-.51,.54-6.43-4.46h0Z"/><path d="M261.1,131.34l11.53-4.53,.5,.91-7.37,10.09,10.58-4.15,.36,.66-11.53,4.53-.5-.91,7.22-10.03-10.42,4.09-.36-.66h0Z"/></svg>