<?xml version="1.0" encoding="UTF-8"?><svg id="Layer_2" xmlns="http://www.w3.org/2000/svg" width="300.25" height="300.25" xmlns:xlink="http://www.w3.org/1999/xlink" viewBox="0 0 300.25 300.25"><defs><style>.cls-1{stroke:#221f20;stroke-linecap:round;}.cls-1,.cls-2{fill:#fff;stroke-miterlimit:10;stroke-width:.25px;}.cls-2{stroke:#000;}.cls-3{font-size:25.21px;}.cls-3,.cls-4,.cls-5,.cls-6,.cls-7,.cls-8,.cls-9,.cls-10,.cls-11,.cls-12,.cls-13,.cls-14,.cls-15,.cls-16,.cls-17,.cls-18,.cls-19,.cls-20,.cls-21,.cls-22,.cls-23,.cls-24,.cls-25,.cls-26{font-family:ShreeDev0714, 'Shree Devanagari 714';}.cls-4{font-size:25.21px;}.cls-5{font-size:25.22px;}.cls-6{font-size:25.22px;}.cls-7{font-size:25.27px;}.cls-8{font-size:25.22px;}.cls-9{font-size:25.24px;}.cls-10{font-size:25.24px;}.cls-11{font-size:25.26px;}.cls-12{font-size:25.26px;}.cls-13{font-size:25.34px;}.cls-14{font-size:25.32px;}.cls-15{font-size:25.36px;}.cls-16{font-size:25.56px;}.cls-17{font-size:25.6px;}.cls-18{font-size:25.43px;}.cls-19{font-size:25.72px;}.cls-20{font-size:25.53px;}.cls-21{font-size:25.46px;}.cls-22{font-size:25.39px;}.cls-23{font-size:25.38px;}.cls-24{font-size:26.51px;}.cls-25{font-size:26.55px;}.cls-26{font-size:24.83px;}</style></defs><g id="Layer_1-2"><g><path class="cls-1" d="M262.8,148.4c-87.58,3.44-175.04,5.25-262.68,4.61-.06,80.49,66.06,146.21,148.39,147.11,82.84,.91,150.72-64.16,151.6-145.33,.03-2.69-.02-5.37-.14-8.02-12.37,.8-24.79,1.14-37.18,1.63Z"/><path class="cls-1" d="M62.45,137.1c46.16-.09,92.33-.78,138.46-2.3,22.24-.73,44.46-1.9,66.7-2.71,10.54-.39,21.11-.7,31.65-1.37C290.99,57.95,228.41,.97,151.79,.13,71.89-.74,5.92,59.76,.54,136.88c20.63,.18,41.27,.26,61.91,.22Z"/><path class="cls-2" d="M200.86,139.84c12.23-.4,24.46-.94,36.68-1.47-6.18-40.74-41.67-72.21-84.9-72.68-45.2-.49-82.69,33.08-87.25,76.44,45.16-.11,90.33-.8,135.46-2.29Z"/><path class="cls-2" d="M64.97,150.02c.55,46.25,38.56,83.84,85.83,84.35,47.93,.52,87.21-37.26,87.72-84.4,.01-1.24-.01-2.46-.05-3.69-57.85,2.07-115.65,3.39-173.5,3.73Z"/><text class="cls-16" transform="translate(45.6 107.91) rotate(-57.41) skewX(.97)"><tspan x="0" y="0">J</tspan></text><text class="cls-21" transform="translate(50.18 94.98) rotate(-45.28) skewX(1.07)"><tspan x="0" y="0">O</tspan></text><text class="cls-18" transform="translate(65.07 78.32) rotate(-41.43) skewX(1.07)"><tspan x="0" y="0">S</tspan></text><text class="cls-15" transform="translate(76.95 66.6) rotate(-33.24) skewX(.99)"><tspan x="0" y="0">E</tspan></text><text class="cls-25" transform="translate(91.39 57.04) rotate(-24.33) scale(.96 1) skewX(.86)"><tspan x="0" y="0">P</tspan></text><text class="cls-9" transform="translate(107.47 50.22) rotate(-14.32) scale(1.02 1) skewX(.54)"><tspan x="0" y="0">H</tspan></text><text class="cls-5" transform="translate(126.01 43.96) rotate(-7.4) scale(1.02 1) skewX(.3)"><tspan x="0" y="0">I</tspan></text><text class="cls-3" transform="translate(132.25 42.8) rotate(2.3) scale(1.02 1) skewX(-.06)"><tspan x="0" y="0">N</tspan></text><text class="cls-6" transform="translate(150.78 43.4) rotate(10.85) scale(1.02 1) skewX(-.38)"><tspan x="0" y="0">E</tspan></text><text class="cls-7" transform="translate(177.86 47.37) rotate(21.66) scale(1.01 1) skewX(-.72)"><tspan x="0" y="0">O</tspan></text><text class="cls-14" transform="translate(196.65 53.46) rotate(28.87) scale(1.01 1) skewX(-.9)"><tspan x="0" y="0">L</tspan></text><text class="cls-20" transform="translate(232.29 81.37) rotate(55.76) skewX(-1.01)"><tspan x="0" y="0">E</tspan></text><text class="cls-19" transform="translate(221.42 69.48) rotate(52.77) scale(.99 1) skewX(-1.05)"><tspan x="0" y="0">S</tspan></text><text class="cls-22" transform="translate(209.38 60.33) rotate(38.58) skewX(-1.04)"><tspan x="0" y="0">E</tspan></text><text class="cls-17" transform="translate(241.25 94.53) rotate(64.83) scale(.99 1) skewX(-.84)"><tspan x="0" y="0">N</tspan></text><image width="44" height="84" transform="translate(113.22 93.95) rotate(.63) scale(1.64 1.29)" xlink:href="../../kea/02_web/02_emnesite/emnesite/Asset2.png"/><text class="cls-23" transform="translate(64.23 231.73) rotate(36.47) skewX(-1.02)"><tspan x="0" y="0">P</tspan></text><text class="cls-13" transform="translate(78.55 243.09) rotate(31.64) skewX(-.95)"><tspan x="0" y="0">O</tspan></text><text class="cls-11" transform="translate(99.63 256.24) rotate(18.41) scale(1.02 1) skewX(-.63)"><tspan x="0" y="0">R</tspan></text><text class="cls-26" transform="translate(123.19 263.08) rotate(6.12) scale(1.03 1) skewX(-.2)"><tspan x="0" y="0">T</tspan></text><text class="cls-4" transform="translate(143.71 264.27) rotate(.63) scale(1.02 1)"><tspan x="0" y="0">F</tspan></text><text class="cls-8" transform="translate(162.98 262.91) rotate(-9.37) scale(1.02 1) skewX(.37)"><tspan x="0" y="0">O</tspan></text><text class="cls-10" transform="translate(184.49 257.22) rotate(-13.07) scale(1.02 1) skewX(.49)"><tspan x="0" y="0">L</tspan></text><text class="cls-24" transform="translate(202.28 253.23) rotate(-17.72) scale(.97 1) skewX(.67)"><tspan x="0" y="0">I</tspan></text><text class="cls-12" transform="translate(210.72 246.51) rotate(-17.72) scale(1.02 1) skewX(.64)"><tspan x="0" y="0">O</tspan></text></g></g></svg>