<?xml version="1.0" encoding="UTF-8"?><svg id="Layer_1" xmlns="http://www.w3.org/2000/svg" width="386" height="390" viewBox="0 0 386 390"><defs><style>.cls-1{fill:#ed1b2b;}.cls-2{fill:red;}.cls-3{fill:#fbb03b;}.cls-4,.cls-5{fill:#d8a71e;}.cls-6{opacity:.43;}.cls-5{stroke:#d8a71e;stroke-miterlimit:10;stroke-width:14px;}</style></defs><rect class="cls-2" x="20.48" y="77.21" width="343.27" height="311.29" rx="24.02" ry="24.02"/><rect class="cls-1" x="-2" y="76.96" width="390" height="79.37" rx="26.5" ry="26.5"/><rect class="cls-3" x="167.74" y="151.37" width="51.53" height="237.13"/><rect class="cls-6" x="20.23" y="156.33" width="343.52" height="33.73"/><rect class="cls-4" x="166.73" y="76.96" width="52.54" height="79.37"/><path class="cls-5" d="M235.26,72.99h-43.27V40.75c0-17.78,13.67-32.25,30.48-32.25h12.79c16.81,0,30.48,14.47,30.48,32.25s-13.67,32.25-30.48,32.25Zm-40.29-3.16h40.29c15.16,0,27.5-13.05,27.5-29.09s-12.34-29.09-27.5-29.09h-12.79c-15.16,0-27.5,13.05-27.5,29.09v29.09Z"/><path class="cls-5" d="M103.08,40.75c0-17.78,15.17-32.25,33.82-32.25h14.19c18.65,0,33.82,14.47,33.82,32.25v32.25h-48.02c-18.65,0-33.82-14.47-33.82-32.25Zm78.53,0c0-16.04-13.69-29.09-30.51-29.09h-14.19c-16.82,0-30.51,13.05-30.51,29.09s13.69,29.09,30.51,29.09h44.7s0-29.09,0-29.09Z"/></svg>