<?xml version="1.0" encoding="UTF-8"?><svg id="Layer_2" xmlns="http://www.w3.org/2000/svg" width="20.25" height="20.25" xmlns:xlink="http://www.w3.org/1999/xlink" viewBox="0 0 20.25 20.25"><defs><style>.cls-1{font-size:1.66px;}.cls-1,.cls-2,.cls-3,.cls-4,.cls-5,.cls-6,.cls-7,.cls-8,.cls-9,.cls-10,.cls-11,.cls-12,.cls-13,.cls-14,.cls-15,.cls-16,.cls-17,.cls-18,.cls-19,.cls-20,.cls-21,.cls-22,.cls-23,.cls-24{font-family:ShreeDev0714, 'Shree Devanagari 714';}.cls-2{font-size:1.69px;}.cls-3{font-size:1.68px;}.cls-4{font-size:1.68px;}.cls-5{font-size:1.69px;}.cls-6{font-size:1.68px;}.cls-7{font-size:1.68px;}.cls-8{font-size:1.68px;}.cls-9{font-size:1.69px;}.cls-10{font-size:1.68px;}.cls-11{font-size:1.68px;}.cls-12{font-size:1.68px;}.cls-13{font-size:1.68px;}.cls-14{font-size:1.68px;}.cls-25{stroke:#221f20;stroke-linecap:round;}.cls-25,.cls-26{fill:#fff;stroke-miterlimit:10;stroke-width:.25px;}.cls-15{font-size:1.77px;}.cls-16{font-size:1.77px;}.cls-17{font-size:1.7px;}.cls-18{font-size:1.69px;}.cls-19{font-size:1.69px;}.cls-20{font-size:1.71px;}.cls-21{font-size:1.7px;}.cls-22{font-size:1.71px;}.cls-23{font-size:1.7px;}.cls-24{font-size:1.7px;}.cls-26{stroke:#000;}</style></defs><g id="Layer_1-2"><g><path class="cls-25" d="M17.64,10.01c-5.84,.23-11.67,.35-17.51,.31,0,5.37,4.4,9.75,9.89,9.81s10.05-4.28,10.11-9.69c0-.18,0-.36,0-.53-.82,.05-1.65,.08-2.48,.11Z"/><path class="cls-25" d="M4.28,9.26c3.08,0,6.16-.05,9.23-.15,1.48-.05,2.96-.13,4.45-.18,.7-.03,1.41-.05,2.11-.09C19.52,3.98,15.34,.18,10.24,.13S.51,4.1,.15,9.24c1.38,.01,2.75,.02,4.13,.01Z"/><path class="cls-26" d="M13.51,9.44c.82-.03,1.63-.06,2.45-.1-.41-2.72-2.78-4.81-5.66-4.85s-5.51,2.21-5.82,5.1c3.01,0,6.02-.05,9.03-.15Z"/><path class="cls-26" d="M4.45,10.12c.04,3.08,2.57,5.59,5.72,5.62,3.2,.03,5.81-2.48,5.85-5.63,0-.08,0-.16,0-.25-3.86,.14-7.71,.23-11.57,.25Z"/><text class="cls-21" transform="translate(3.16 7.31) rotate(-57.41) skewX(.97)"><tspan x="0" y="0">J</tspan></text><text class="cls-23" transform="translate(3.46 6.45) rotate(-45.28) skewX(1.07)"><tspan x="0" y="0">O</tspan></text><text class="cls-17" transform="translate(4.45 5.34) rotate(-41.43) skewX(1.07)"><tspan x="0" y="0">S</tspan></text><text class="cls-2" transform="translate(5.25 4.56) rotate(-33.24) skewX(.99)"><tspan x="0" y="0">E</tspan></text><text class="cls-16" transform="translate(6.21 3.92) rotate(-24.33) scale(.96 1) skewX(.86)"><tspan x="0" y="0">P</tspan></text><text class="cls-3" transform="translate(7.28 3.46) rotate(-14.32) scale(1.02 1) skewX(.54)"><tspan x="0" y="0">H</tspan></text><text class="cls-11" transform="translate(8.52 3.05) rotate(-7.4) scale(1.02 1) skewX(.3)"><tspan x="0" y="0">I</tspan></text><text class="cls-14" transform="translate(8.93 2.97) rotate(2.3) scale(1.02 1) skewX(-.06)"><tspan x="0" y="0">N</tspan></text><text class="cls-7" transform="translate(10.17 3.01) rotate(10.85) scale(1.02 1) skewX(-.38)"><tspan x="0" y="0">E</tspan></text><text class="cls-12" transform="translate(11.97 3.27) rotate(21.66) scale(1.01 1) skewX(-.72)"><tspan x="0" y="0">O</tspan></text><text class="cls-5" transform="translate(13.23 3.68) rotate(28.87) scale(1.01 1) skewX(-.9)"><tspan x="0" y="0">L</tspan></text><text class="cls-24" transform="translate(15.6 5.54) rotate(55.76) skewX(-1.01)"><tspan x="0" y="0">E</tspan></text><text class="cls-20" transform="translate(14.88 4.75) rotate(52.77) scale(.99 1) skewX(-1.05)"><tspan x="0" y="0">S</tspan></text><text class="cls-9" transform="translate(14.08 4.14) rotate(38.58) skewX(-1.04)"><tspan x="0" y="0">E</tspan></text><text class="cls-22" transform="translate(16.2 6.42) rotate(64.83) scale(.99 1) skewX(-.84)"><tspan x="0" y="0">N</tspan></text><image width="44" height="84" transform="translate(7.66 6.38) rotate(.63) scale(.11 .09)" xlink:href="../../kea/02_web/02_emnesite/emnesite/Asset2.png"/><text class="cls-18" transform="translate(4.4 15.56) rotate(36.47) skewX(-1.02)"><tspan x="0" y="0">P</tspan></text><text class="cls-19" transform="translate(5.35 16.32) rotate(31.64) skewX(-.95)"><tspan x="0" y="0">O</tspan></text><text class="cls-10" transform="translate(6.76 17.2) rotate(18.41) scale(1.02 1) skewX(-.63)"><tspan x="0" y="0">R</tspan></text><text class="cls-1" transform="translate(8.33 17.66) rotate(6.12) scale(1.03 1) skewX(-.2)"><tspan x="0" y="0">T</tspan></text><text class="cls-13" transform="translate(9.7 17.73) rotate(.63) scale(1.02 1)"><tspan x="0" y="0">F</tspan></text><text class="cls-8" transform="translate(10.98 17.65) rotate(-9.37) scale(1.02 1) skewX(.37)"><tspan x="0" y="0">O</tspan></text><text class="cls-4" transform="translate(12.42 17.26) rotate(-13.07) scale(1.02 1) skewX(.49)"><tspan x="0" y="0">L</tspan></text><text class="cls-15" transform="translate(13.6 17) rotate(-17.72) scale(.97 1) skewX(.67)"><tspan x="0" y="0">I</tspan></text><text class="cls-6" transform="translate(14.17 16.55) rotate(-17.72) scale(1.02 1) skewX(.64)"><tspan x="0" y="0">O</tspan></text></g></g></svg>